<?xml version="1.0" encoding="UTF-8" standalone="no"?>
<!-- Created with Inkscape (http://www.inkscape.org/) -->

<svg
   xmlns:dc="http://purl.org/dc/elements/1.1/"
   xmlns:cc="http://creativecommons.org/ns#"
   xmlns:rdf="http://www.w3.org/1999/02/22-rdf-syntax-ns#"
   xmlns:svg="http://www.w3.org/2000/svg"
   xmlns="http://www.w3.org/2000/svg"
   xmlns:sodipodi="http://sodipodi.sourceforge.net/DTD/sodipodi-0.dtd"
   xmlns:inkscape="http://www.inkscape.org/namespaces/inkscape"
   width="60"
   height="60"
   id="svg3209"
   version="1.1"
   inkscape:version="0.91 r13725"
   sodipodi:docname="inky.svg">
  <title
     id="title3238">Inky</title>
  <defs
     id="defs3211" />
  <sodipodi:namedview
     id="base"
     pagecolor="#ffffff"
     bordercolor="#666666"
     borderopacity="1.0"
     inkscape:pageopacity="0.0"
     inkscape:pageshadow="2"
     inkscape:zoom="1.4"
     inkscape:cx="56.727193"
     inkscape:cy="-67.066627"
     inkscape:document-units="px"
     inkscape:current-layer="g3048"
     showgrid="false"
     fit-margin-top="0"
     fit-margin-left="0"
     fit-margin-right="0"
     fit-margin-bottom="0"
     inkscape:window-width="1436"
     inkscape:window-height="856"
     inkscape:window-x="0"
     inkscape:window-y="0"
     inkscape:window-maximized="1" />
  <metadata
     id="metadata3214">
    <rdf:RDF>
      <cc:Work
         rdf:about="">
        <dc:format>image/svg+xml</dc:format>
        <dc:type
           rdf:resource="http://purl.org/dc/dcmitype/StillImage" />
        <dc:title>Inky</dc:title>
      </cc:Work>
    </rdf:RDF>
  </metadata>
  <g
     inkscape:label="Ebene 1"
     inkscape:groupmode="layer"
     id="layer1"
     transform="translate(-620.1475,-462.09155)">
    <g
       id="g3048"
       inkscape:label="#blinky"
       transform="translate(169.6996,-110.9135)"
       inkscape:export-xdpi="90"
       inkscape:export-ydpi="90">
      <title
         id="title3056">Blinky</title>
      <path
         id="path3373"
         d="m 505.1028,619.16562 c -0.85979,1.98629 -1.8775,3.81466 -3.05664,5.49564 -1.60729,2.2916 -2.92329,3.87783 -3.93749,4.75867 -1.57219,1.44586 -3.25668,2.18633 -5.06048,2.22844 -1.29495,0 -2.85661,-0.36848 -4.67446,-1.11597 -1.82381,-0.74398 -3.49987,-1.11247 -5.0324,-1.11247 -1.60728,0 -3.33108,0.36849 -5.17489,1.11247 -1.84662,0.74749 -3.33423,1.13703 -4.47161,1.17563 -1.72976,0.0737 -3.4539,-0.68783 -5.17489,-2.2881 -1.09842,-0.95805 -2.47233,-2.60042 -4.11822,-4.92712 -1.7659,-2.48462 -3.21772,-5.3658 -4.3551,-8.65055 -1.21809,-3.54795 -1.82872,-6.9836 -1.82872,-10.30976 0,-3.8101 0.82329,-7.09625 2.47234,-9.85004 1.296,-2.21194 3.02014,-3.95679 5.17804,-5.2377 2.1579,-1.28091 4.48951,-1.93365 7.00045,-1.97542 1.37391,0 3.17561,0.42499 5.41457,1.26021 2.23265,0.83803 3.66622,1.26302 4.29474,1.26302 0.46991,0 2.06245,-0.49693 4.76219,-1.48762 2.55305,-0.91874 4.70779,-1.29916 6.47299,-1.14931 4.78325,0.38603 8.37682,2.2716 10.76668,5.66865 -4.27789,2.59201 -6.39403,6.22243 -6.35192,10.87969 0.0386,3.62761 1.35461,6.64635 3.941,9.04324 1.17212,1.11246 2.48111,1.97225 3.93749,2.58288 -0.31584,0.91594 -0.64923,1.79327 -1.00367,2.63552 z m -10.97023,-43.1685 c 0,2.84331 -1.03876,5.4981 -3.10928,7.95534 -2.49866,2.92118 -5.52091,4.60918 -8.79829,4.34282 -0.0418,-0.34111 -0.066,-0.70011 -0.066,-1.07737 0,-2.72957 1.18826,-5.65075 3.29843,-8.03921 1.05351,-1.20933 2.39338,-2.21486 4.01821,-3.01699 1.62132,-0.79017 3.1549,-1.22715 4.59724,-1.30197 0.0421,0.3801 0.0597,0.76023 0.0597,1.13734 z"
         inkscape:connector-curvature="0"
         style="fill:#ffffff" />
    </g>
  </g>
</svg>
