<?xml version="1.0" encoding="UTF-8" standalone="no"?>
<!-- Created with Inkscape (http://www.inkscape.org/) -->

<svg
   xmlns:dc="http://purl.org/dc/elements/1.1/"
   xmlns:cc="http://creativecommons.org/ns#"
   xmlns:rdf="http://www.w3.org/1999/02/22-rdf-syntax-ns#"
   xmlns:svg="http://www.w3.org/2000/svg"
   xmlns="http://www.w3.org/2000/svg"
   xmlns:sodipodi="http://sodipodi.sourceforge.net/DTD/sodipodi-0.dtd"
   xmlns:inkscape="http://www.inkscape.org/namespaces/inkscape"
   width="60"
   height="60"
   id="svg3209"
   version="1.1"
   inkscape:version="0.91 r13725"
   sodipodi:docname="pinky.svg">
  <title
     id="title3238">pinky</title>
  <defs
     id="defs3211" />
  <sodipodi:namedview
     id="base"
     pagecolor="#ffffff"
     bordercolor="#666666"
     borderopacity="1.0"
     inkscape:pageopacity="0.0"
     inkscape:pageshadow="2"
     inkscape:zoom="1.4"
     inkscape:cx="56.727193"
     inkscape:cy="-67.066627"
     inkscape:document-units="px"
     inkscape:current-layer="g3048"
     showgrid="false"
     fit-margin-top="0"
     fit-margin-left="0"
     fit-margin-right="0"
     fit-margin-bottom="0"
     inkscape:window-width="1436"
     inkscape:window-height="856"
     inkscape:window-x="0"
     inkscape:window-y="0"
     inkscape:window-maximized="1" />
  <metadata
     id="metadata3214">
    <rdf:RDF>
      <cc:Work
         rdf:about="">
        <dc:format>image/svg+xml</dc:format>
        <dc:type
           rdf:resource="http://purl.org/dc/dcmitype/StillImage" />
        <dc:title>pinky</dc:title>
      </cc:Work>
    </rdf:RDF>
  </metadata>
  <g
     inkscape:label="Ebene 1"
     inkscape:groupmode="layer"
     id="layer1"
     transform="translate(-620.1475,-462.09155)">
    <g
       id="g3048"
       inkscape:label="#blinky"
       transform="translate(169.6996,-110.9135)"
       inkscape:export-xdpi="90"
       inkscape:export-ydpi="90">
      <title
         id="title3056">Blinky</title>
      <g
         id="g3389"
         transform="matrix(0.22118365,0,0,0.22118365,451.14603,573.13225)">
        <path
           d="m 248.082,262.307 c 7.854,0 14.223,-6.369 14.223,-14.225 l 0,-229.27 c 0,-7.857 -6.368,-14.224 -14.223,-14.224 l -229.27,0 c -7.857,0 -14.224,6.367 -14.224,14.224 l 0,229.27 c 0,7.855 6.366,14.225 14.224,14.225 l 229.27,0 z"
           id="Blue_1_"
           inkscape:connector-curvature="0"
           style="fill:#3c5a99" />
        <path
           d="m 182.409,262.307 0,-99.803 33.499,0 5.016,-38.895 -38.515,0 0,-24.832 c 0,-11.261 3.127,-18.935 19.275,-18.935 l 20.596,-0.009 0,-34.788 c -3.562,-0.474 -15.788,-1.533 -30.012,-1.533 -29.695,0 -50.025,18.126 -50.025,51.413 l 0,28.684 -33.585,0 0,38.895 33.585,0 0,99.803 40.166,0 z"
           id="f"
           inkscape:connector-curvature="0"
           style="fill:#ffffff" />
      </g>
    </g>
  </g>
</svg>
