<svg xmlns="http://www.w3.org/2000/svg" width="18" height="20" viewBox="0 0 18 20" xmlns:xlink="http://www.w3.org/1999/xlink">
  <defs>
    <path id="a" d="M15.4757163,10.6253714 C15.503821,13.6520046 18.1308729,14.6591918 18.1599771,14.6720472 C18.1377641,14.7430796 17.740218,16.1073877 16.7759213,17.5166205 C15.9423293,18.7349736 15.0771707,19.9488637 13.7142902,19.9740044 C12.3751239,19.9986797 11.9445072,19.1798753 10.4134609,19.1798753 C8.88287717,19.1798753 8.40444241,19.9488616 7.13677232,19.9986797 C5.82124694,20.0484614 4.81948818,18.6811922 3.97896865,17.4673022 C2.26146879,14.9842491 0.948943525,10.4507777 2.71133319,7.39061051 C3.58685078,5.87091905 5.15146689,4.90858698 6.84971778,4.88390977 C8.14153008,4.85926831 9.36084735,5.752998 10.1505486,5.752998 C10.9397491,5.752998 12.4214791,4.67820972 13.9791672,4.83605597 C14.6312686,4.86319705 16.4617281,5.09946804 17.6371164,6.81993142 C17.5424091,6.87864283 15.4530036,8.09499525 15.4757163,10.6253743 M12.9589079,3.19329974 C13.6573292,2.3478886 14.127407,1.17099812 13.9991647,0 C12.9924429,0.0404611849 11.7750901,0.670851419 11.052991,1.51579744 C10.4058515,2.26403648 9.83910284,3.4616408 9.99202145,4.60946233 C11.114131,4.69627844 12.2604523,4.0392485 12.9589079,3.19330111"/>
  </defs>
  <g fill="none" fill-rule="evenodd" transform="translate(-1)">
    <mask id="b" fill="white">
      <use xlink:href="#a"/>
    </mask>
    <use fill="#222222" fill-rule="nonzero" xlink:href="#a"/>
    <rect width="20" height="20" fill="#FFFFFF" mask="url(#b)"/>
  </g>
</svg>
