<svg width="16" height="16" viewBox="0 0 16 16" xmlns="http://www.w3.org/2000/svg"><title>icon-github</title><g fill="none" fill-rule="evenodd"><circle fill="#111F40" cx="8" cy="8" r="8"/><path d="M8 0C3.58 0 0 3.582 0 8c0 3.535 2.292 6.533 5.47 7.59.4.075.547-.172.547-.385 0-.19-.007-.693-.01-1.36-2.226.483-2.695-1.073-2.695-1.073-.364-.924-.89-1.17-.89-1.17-.725-.496.056-.486.056-.486.803.056 1.225.824 1.225.824.714 1.223 1.873.87 2.33.665.072-.517.278-.87.507-1.07-1.777-.2-3.644-.888-3.644-3.953 0-.873.31-1.588.823-2.147-.083-.202-.358-1.016.078-2.117 0 0 .67-.215 2.2.82.637-.178 1.322-.266 2.002-.27.68.004 1.364.092 2.003.27 1.527-1.035 2.198-.82 2.198-.82.437 1.1.163 1.915.08 2.117.514.56.823 1.274.823 2.147 0 3.073-1.87 3.75-3.652 3.947.287.246.543.735.543 1.48 0 1.07-.01 1.933-.01 2.195 0 .215.145.463.55.385C13.71 14.53 16 11.534 16 8c0-4.418-3.582-8-8-8" fill="#BBC3CE"/></g></svg>