<svg width="116" height="38" viewBox="0 0 116 38" xmlns="http://www.w3.org/2000/svg"><title>logo - docs</title><g fill="#3CA8FC" fill-rule="evenodd"><path d="M36.76 38H13.24C5.937 38 0 32.068 0 24.777c0-3.478 1.34-6.762 3.776-9.248 2.134-2.176 4.897-3.53 7.887-3.882.353-2.986 1.707-5.747 3.887-7.877C18.04 1.338 21.327 0 24.808 0c3.48 0 6.77 1.337 9.26 3.77 2.17 2.12 3.52 4.867 3.882 7.837 6.745.604 12.05 6.28 12.05 13.17C50 32.068 44.058 38 36.76 38zm.046-2.48h.1c5.842 0 10.594-4.772 10.594-10.638s-4.752-10.638-10.593-10.638H36.8c-.762 0-1.387-.61-1.404-1.378-.132-5.73-4.88-10.388-10.59-10.388-5.707 0-10.458 4.66-10.59 10.39-.016.754-.62 1.362-1.372 1.38-5.704.13-10.344 4.9-10.344 10.635 0 5.866 4.752 10.64 10.593 10.64h.086l.033-.003c.03 0 .06 0 .09.002h23.503zm-5.208-11.536c-.835-.543-.876-1.542-.878-1.586-.006-.27-.228-.485-.5-.48-.272.004-.488.228-.483.498.002.036.016.505.24 1.057-2.973 2.81-7.644 2.814-10.623.017.23-.56.245-1.037.245-1.073.004-.27-.21-.492-.48-.5-.268-.007-.495.21-.504.48 0 .04-.04 1.043-.877 1.586-.23.15-.293.454-.144.68.094.145.25.223.412.223.092 0 .185-.026.268-.08.215-.14.395-.3.546-.468 1.654 1.486 3.745 2.23 5.835 2.23 2.096 0 4.192-.747 5.85-2.24.15.17.333.335.554.48.083.052.177.078.27.078.16 0 .316-.08.41-.223.15-.228.085-.533-.142-.68zM59.7 9.32h4.92c3.04 0 5.35.84 6.93 2.52 1.58 1.68 2.37 4.09 2.37 7.23 0 1.56-.2 2.955-.6 4.185-.4 1.23-.99 2.27-1.77 3.12-.78.85-1.74 1.5-2.88 1.95-1.14.45-2.45.675-3.93.675H59.7V9.32zm4.74 17.64c2.3 0 4.025-.69 5.175-2.07 1.15-1.38 1.725-3.32 1.725-5.82 0-2.5-.575-4.41-1.725-5.73-1.15-1.32-2.875-1.98-5.175-1.98h-2.25v15.6h2.25zm11.89-5.22c0-1.22.185-2.305.555-3.255.37-.95.865-1.755 1.485-2.415.62-.66 1.335-1.16 2.145-1.5.81-.34 1.665-.51 2.565-.51.9 0 1.755.17 2.565.51.81.34 1.525.84 2.145 1.5.62.66 1.115 1.465 1.485 2.415.37.95.555 2.035.555 3.255 0 1.2-.185 2.275-.555 3.225-.37.95-.865 1.75-1.485 2.4-.62.65-1.335 1.145-2.145 1.485-.81.34-1.665.51-2.565.51-.9 0-1.755-.17-2.565-.51-.81-.34-1.525-.835-2.145-1.485-.62-.65-1.115-1.45-1.485-2.4-.37-.95-.555-2.025-.555-3.225zm2.55 0c0 .84.1 1.6.3 2.28.2.68.485 1.265.855 1.755s.815.87 1.335 1.14c.52.27 1.09.405 1.71.405.62 0 1.19-.135 1.71-.405s.965-.65 1.335-1.14c.37-.49.655-1.075.855-1.755.2-.68.3-1.44.3-2.28 0-.84-.1-1.605-.3-2.295-.2-.69-.485-1.285-.855-1.785s-.815-.885-1.335-1.155-1.09-.405-1.71-.405c-.62 0-1.19.135-1.71.405s-.965.655-1.335 1.155-.655 1.095-.855 1.785c-.2.69-.3 1.455-.3 2.295zm13.21 0c0-1.22.19-2.305.57-3.255.38-.95.89-1.755 1.53-2.415.64-.66 1.385-1.16 2.235-1.5.85-.34 1.745-.51 2.685-.51.96 0 1.785.175 2.475.525.69.35 1.285.755 1.785 1.215l-1.23 1.59c-.44-.38-.895-.69-1.365-.93-.47-.24-.995-.36-1.575-.36-.66 0-1.27.135-1.83.405s-1.04.655-1.44 1.155c-.4.5-.715 1.095-.945 1.785-.23.69-.345 1.455-.345 2.295 0 .84.11 1.6.33 2.28.22.68.525 1.265.915 1.755s.865.87 1.425 1.14c.56.27 1.17.405 1.83.405.7 0 1.335-.145 1.905-.435.57-.29 1.075-.635 1.515-1.035l1.11 1.62c-.66.58-1.395 1.04-2.205 1.38-.81.34-1.655.51-2.535.51-.96 0-1.86-.17-2.7-.51-.84-.34-1.565-.835-2.175-1.485-.61-.65-1.09-1.45-1.44-2.4-.35-.95-.525-2.025-.525-3.225zm13.87 3.96c.64.52 1.295.94 1.965 1.26.67.32 1.445.48 2.325.48.96 0 1.68-.22 2.16-.66.48-.44.72-.98.72-1.62 0-.38-.1-.71-.3-.99-.2-.28-.455-.525-.765-.735-.31-.21-.665-.395-1.065-.555l-1.2-.48c-.52-.18-1.04-.385-1.56-.615-.52-.23-.985-.51-1.395-.84-.41-.33-.745-.715-1.005-1.155-.26-.44-.39-.97-.39-1.59 0-.58.115-1.125.345-1.635.23-.51.56-.95.99-1.32.43-.37.955-.66 1.575-.87.62-.21 1.32-.315 2.1-.315.92 0 1.765.16 2.535.48.77.32 1.435.71 1.995 1.17l-1.17 1.56c-.5-.38-1.02-.69-1.56-.93-.54-.24-1.13-.36-1.77-.36-.92 0-1.595.21-2.025.63-.43.42-.645.91-.645 1.47 0 .34.09.635.27.885.18.25.42.47.72.66.3.19.645.36 1.035.51l1.215.465c.52.2 1.045.41 1.575.63.53.22 1.005.495 1.425.825.42.33.765.735 1.035 1.215.27.48.405 1.06.405 1.74 0 .6-.115 1.16-.345 1.68-.23.52-.57.98-1.02 1.38-.45.4-1.01.715-1.68.945-.67.23-1.435.345-2.295.345-1.04 0-2.03-.19-2.97-.57-.94-.38-1.76-.86-2.46-1.44l1.23-1.65z"/></g></svg>
