<svg width="128" height="128" viewBox="0 0 128 128" xmlns="http://www.w3.org/2000/svg"><title>openvz-logo</title><g fill="none" fill-rule="evenodd"><path d="M.002 64c0 35.345-28.654 64-64 64C-99.347 128-128 99.345-128 64c0-35.346 28.654-64 64-64C-28.65 0 .003 28.654.003 64z" fill="#BC1142"/><path d="M128.002 64c0 35.345-28.654 64-64 64C28.653 128 0 99.345 0 64 0 28.655 28.654 0 64 0c35.348 0 64.002 28.654 64.002 64z" fill="#206932"/><path d="M22.824 77.066c-4.042 4.155-5.53 7.81-4.515 11.078 2.168 7.136 15.13 8.678 25.577 8.678 12.617 0 27.176-2.284 37.396-5.88 1.713-.686 3.425-1.37 5.08-2.056 6.567-3.083 9.935-6.623 9.935-10.62 0-2.62-1.442-5.156-4.362-7.576-.395-.67-.96-1.3-1.747-1.844-2.97-2.055-6.966-4.054-12.162-5.995-.114-.056-.17-.056-.228-.056-.685.8-1.656 1.827-2.57 2.626-.17.172-.4.343-.57.514.57.172.856.286 1.2.4.227.114.456.17.74.285 12.96 4.91 15.302 8.792 15.588 10.62 0 0 .48-1.186.57-2.747.017 1.833-.57 3.317-.57 3.317 0 .17.057.285.057.456 0 2.17-2.627 4.568-7.25 6.795l-.8.4c-.058 0-.058 0-.058.057-.513.23-.97.457-1.54.628-.515.23-.344.172-.972.4 0 0-1.655.628-2.74.97-1.2.4-2.57.8-2.57.8-.056 0-.056 0-.114.057-.627.17-1.198.342-1.71.457-.058 0-.058 0-.116.056-.685.17-1.313.342-2.055.514-8.736 2.112-19.127 3.425-28.433 3.425-11.42 0-19.64-1.998-21.467-5.195 0 0-.263-.277-.57-.797.282.445.512.683.512.683-.114-.23-.228-.4-.285-.628-.4-1.314-.17-4.91 9.135-11.82.17-1.54.4-3.424.8-5.48-3.77 2.57-6.795 4.967-9.022 7.25-.03.04-.087.115-.166.228zm25.024-13.6c.003.656.15 1.04.15 1.04.97 3.712 5.024 7.88 9.134 11.248-.057.057-.114.114-.17.114-.286.23-.515.4-.8.63.685-.572 1.142-.858 2.112-1.828v.114c-.228-1.256-.457-2.74-.628-3.883-1.6-1.426-2.74-2.682-3.654-3.767l.057.057s-.058-.114-.172-.228c-.057-.057-.057-.114-.114-.17-.23-.287-.514-.686-.857-1.2-.057-.057-.114-.115-.114-.23-.228-.398-.457-.798-.628-1.198-.114-.228-.17-.456-.228-.685-.114-.343-.172-.63-.172-.914 0-.408.26-1.228 1.077-2.03-.77.783-1.02 1.575-1.02 1.973 0 .284.058.57.172.912.057.23.114.457.228.685.057.114.114.23.114.286.115.342.286.628.457.913.057.057.114.17.114.23.343.512.685.912.857 1.198.057.057.114.114.114.17.114.172.17.23.17.23s0-.058-.056-.058v-.057c-.228-.4-1.085-1.885-.57-2.856.4-.685 1.484-1.2 2.74-1.484.4 1.94 2.112 8.164 2.683 9.592.114.228.17.456.286.685v.057c.058.17.115.285.23.457 2.968 6.167 7.193 4.854 8.106 4.34.35-.162.69-.528.99-.96-.328.48-.695.898-1.047 1.074-.857.514-5.14 1.827-8.108-4.34-.057-.113-.114-.285-.23-.456v-.057c-.056-.056-.056-.17-.113-.227.342.913.627 1.77.856 2.34.685 1.6 1.427 2.97 2.112 3.77.114.17.228.284.4.455l.057.057c.4.4.8.8 1.256 1.142.45.317.857.56 1.242.744.274.19.543.365.87.57 2.456 1.656 4.398 2.855 7.08 4.397l.344.228.913.514c.74.398 1.54.798 2.283 1.198-.057-.057 1.313-.457 2.512-.8 1.028-.342 2.74-.97 2.74-.97-.8-.4-1.827-.857-2.683-1.313-2.912-1.542-5.652-3.14-8.222-4.74 0 0-1.198 1.2-2.91 1.37-.25.02-.488.03-.716.027.176-.002.356-.01.543-.026 1.713-.17 2.912-1.37 2.912-1.37 2.854-2.626 4.395-8.164 5.31-13.53-.344-.115-.63-.23-1.257-.458-1.028.8-2.284 1.77-3.197 2.398l-.057.057c-.458 1.998-.915 3.597-1.372 4.853 0 0-.1.25-.253.61-.403.624-1.076 1.445-1.86 1.445-.798 0-1.826-.684-2.74-1.654.057-.057.172-.057.23-.172 1.37-1.256 5.194-4.91 6.05-6.166l-.056.057c-.06.23-.116.286-.116.286.057-.056.115-.17.172-.227 2.57-3.57 3.24-6.224 3.154-8.05.086 1.826-.585 4.48-3.154 8.05-.057.057-.115.114-.172.228l.115-.113.056-.057c1.027-1.142 2.17-2.513 2.797-3.312 1.028-1.37 1.827-2.74 2.227-3.768.228-.8.457-1.656.457-2.626v-.286c0-.26-.144-1.816-1.045-2.996.08.08.163.166.245.256 1.142 1.2 1.313 3.026 1.313 3.31.23-3.082.286-6.336.286-9.762.057-.514 0-2.398-.057-3.768 0 0-.915-.742-1.714-1.54-.8-.858-2.398-2.114-2.398-2.114.057.97.114 1.998.114 2.855.055 1.814.11 5.91.012 8.963-.327-.17-.526-.23-.526-.23-.856-.227-1.827-.342-2.91-.342-2.913 0-6.795.858-11.42 2.57 0-.056 0-.17-.057-.228-2.054-12.617-.285-16.9.914-18.384.685-.8 1.485-1.142 2.57-1.142 2.283 0 5.538 1.542 9.363 4.397h.057c.4.285.856.628 1.313.97 0 0 1.542 1.256 2.455 2.113.8.8 1.713 1.54 1.713 1.54l.913.915c.058.058.058.115.115.115 14.616 14.33 28.204 37.74 25.52 45.16-.057.23-.17.457-.342.686 0 0-.007.054-.03.15-.547.716-1.542 1.335-3.68 1.335-2.684 0-6.338-.97-10.905-2.912-1.313.628-3.083 1.37-5.14 2.113 4.17 1.998 7.823 3.368 10.85 4.11.57.115 2.283.343 5.08-.627.205-.07.398-.144.582-.225-.217.102-.45.196-.696.28-2.796.914-4.452.743-5.023.63 1.884.455 3.597.684 5.14.684 5.08 0 7.135-2.627 7.935-4.854 4.167-11.362-15.416-40.137-30.317-53.04-1.6-1.256-3.14-2.512-4.625-3.597-3.94-2.684-7.365-4.054-10.22-4.054-2.283 0-4.224.856-5.652 2.57-3.026 3.596-3.654 10.618-1.827 21.637v.057c.915.172 1.943.343 2.856.628 1.485.457 3.768 1.314 4.967 1.827h.057c1.884-.57 3.597-1.027 5.082-1.256h.114c.114-.03.37-.072.706-.115-.307.07-.563.114-.706.114.457 0 2.226-.058 2.797.913.4.685.343 1.884 0 3.083-1.827-.57-6.737-2.056-8.22-2.227-.287-.058-.63-.058-.915-.115-.007 0-.014 0-.022-.002-.65-.11-1.362-.245-2.033-.34-.114 0-.228-.058-.4-.058-.742-.114-1.37-.17-1.884-.228-1.37-.114-2.684-.114-3.712 0-.742.114-1.484.285-2.226.57-.115.058-.286.115-.4.172-.114.056-.285.113-.4.17-.026.026-.123.1-.265.217-3.648 1.806-7.46 3.94-11.44 6.35 0 0-.513 1.712-.684 3.025-.17 1.028-.4 2.398-.4 2.398 3.54-2.34 7.023-4.396 10.334-6.166 0 0-.15-.417-.15-1.098zm-2.54 24.35c-1.432.452-2.743.67-3.933.67-2.34 0-4.34-.913-5.767-2.57-2.055-2.454-2.855-6.565-2.398-12.274.23-1.77.457-3.597.742-5.367 1.884-10.105 6.68-22.894 12.618-33.628C50.567 27.34 58.445 15.12 66.04 15.12c2.168 0 5.25.972 7.478 5.768.42.932.84 1.978 1.196 3.17.114.272.21.53.288.77.857 3.14 1.428 7.022 1.77 11.646-1.54-1.256-3.083-2.398-4.34-3.368-.74-6.395-2.054-10.79-3.88-12.846-.512-.625-1.08-.967-1.704-1.14-.26.06-.41.112-.41.112h.115c-.172-.057-.343-.057-.514-.057-3.084 0-8.908 4.624-15.987 17.47-5.025 9.078-9.192 19.64-11.362 28.66 0 0-.456 1.714-.684 3.027-.17 1.028-.4 2.398-.4 2.398-1.256 8.28.115 11.476 1.085 12.618.344.4.686.685 1.143.856 0 0 .175.245.5.6.34.088.706.142 1.1.142 2.282 0 6.68-1.37 14.73-7.82.684-.515 1.14-.858 2.11-1.943v.115c0 .114.058.17.058.285.058.17.058.343.115.457.286 1.2.743 2.512 1.085 3.482 0 .058-.057.058-.057.058-4.453 3.71-8.336 6.28-11.704 7.764-.872.37-1.696.502-2.46.472zm24.956-31.302h-.057c-.086 0-.172 0-.25.007.093.037.164.022.25-.006h.057zM62.9 70.674c-1.086-2.627-2.114-6.453-2.456-7.88 2.57.4 6.565 1.256 8.05 1.6-1.656 1.997-4.225 4.795-5.595 6.28z" fill="#FFF"/></g></svg>