<svg width="128" height="128" viewBox="0 0 128 128" xmlns="http://www.w3.org/2000/svg"><title>ovh-logo</title><g fill="none" fill-rule="evenodd"><path d="M.002 64c0 35.345-28.654 64-64 64C-99.347 128-128 99.345-128 64c0-35.346 28.654-64 64-64C-28.65 0 .003 28.654.003 64z" fill="#572E6B"/><path d="M128.002 64c0 35.345-28.654 64-64 64C28.653 128 0 99.345 0 64 0 28.655 28.654 0 64 0c35.348 0 64.002 28.654 64.002 64z" fill="#264670"/><path d="M108.266 37.322l-10.76 18.7H86.2L72.862 79.17h11.323l-8.563 14.87h27.81c7.108-8.69 11.377-19.793 11.377-31.894 0-9.03-2.387-17.494-6.544-24.824zM53.19 94.04h.027l-.013-.026L87.758 34H58.526l-19.93 34.635-18.037-31.34C16.39 44.628 14 53.104 14 62.144 14 74.25 18.268 85.35 25.378 94.04H53.19z" fill="#FFF"/></g></svg>