<svg width="128" height="128" viewBox="0 0 128 128" xmlns="http://www.w3.org/2000/svg"><title>digitalocean-logo</title><g fill="none" fill-rule="evenodd"><path d="M.002 64c0 35.345-28.654 64-64 64C-99.347 128-128 99.345-128 64c0-35.346 28.654-64 64-64C-28.65 0 .003 28.654.003 64z" fill="#37B0D9"/><path d="M128.002 64c0 35.345-28.654 64-64 64C28.653 128 0 99.345 0 64 0 28.655 28.654 0 64 0c35.348 0 64.002 28.654 64.002 64zM21.762 84.674c17.223-11.063 36.748-3.105 46.473 2.22-13.47-5.32-33.22-6.567-46.474-2.22zm4.207-6.433c-2.8 2.066-4.376 3.81-4.376 3.81 0 .074 1.627-.913 4.375-2.073V78.24zm0-6.862c-1.816-3.514-1.19-7.502-1.19-7.502s-3.072 7.044 1.19 11.24v-3.738zm0-18.715v6.4c-2.838 1.63-4.745 4.666-4.745 8.142 0 3.475 1.907 6.51 4.744 8.142v1.14c-1.144.774-2.26 1.6-3.18 2.306-4.086-2.605-6.79-7.14-6.79-12.298 0-6.405 4.167-11.848 9.97-13.832zm0 6.4v-6.4c1.315-.45 2.714-.72 4.17-.786-.076.73-.114 1.472-.114 2.223 0 1.26.11 2.497.318 3.7-1.59.066-3.08.518-4.375 1.262zm0 17.425c1-.676 2.023-1.315 2.96-1.8-.458-.29-.886-.624-1.272-1.003-.72-.706-1.27-1.494-1.69-2.307v3.737l.112.11c.18.168.368.327.562.474-.23-.11-.454-.228-.673-.353v1.14zm0 3.49V78.24c5.383-3.974 15.29-9.145 27.2-5.413 18.1 5.672 29.62 13.388 43.607 9.915C110.767 79.27 112 71.63 112 71.63s-2.47 10.79-16.252 13.158c-13.78 2.368-26.476-.287-42.623-6.306-10.9-4.063-21.448-.912-27.156 1.495zM52 34c8.275 0 15.398 4.88 18.58 11.883h-6.475c-2.858-3.525-7.253-5.784-12.182-5.784-4.847 0-9.178 2.182-12.038 5.608.154-.122.31-.244.474-.36 6.765-4.83 15.79.493 15.79.493s-8.576-2.477-14.374 1.587C35.98 51.492 36.91 59.63 36.91 59.63s-.037-.11-.096-.304c.024.093.05.186.076.28-1.39-1.024-3.077-1.693-4.91-1.87-.22-1.18-.335-2.394-.335-3.636C31.645 43 40.757 34 52 34zm19.494 41.488s8.64 4.422 16.764 3.703c8.125-.72 10.593-3.6 10.593-3.6s-2.98 5.503-10.797 5.812c-7.818.308-16.56-5.708-16.56-5.914zM64.87 47.545h7.262v7.26H64.87v-7.26zm28.84 20.12h5.616v5.616H93.71v-5.616zM73.62 40.89h9.684v9.683H73.62V40.89zm28.115 16.757h9.684v9.683h-9.685v-9.683zm-17.5-6.33h5.397v5.398h-5.398v-5.397zm3.61 10.634h5.398v5.4h-5.4v-5.4zm-11.366.54h5.398v5.398h-5.4v-5.4zm18.925-10.987h5.398v5.4h-5.398v-5.4z" fill="#60A6CF"/></g></svg>