<svg width="128" height="128" viewBox="0 0 128 128" xmlns="http://www.w3.org/2000/svg"><title>pingfiles-logo</title><g fill="none" fill-rule="evenodd"><path d="M.002 64c0 35.345-28.654 64-64 64C-99.347 128-128 99.345-128 64c0-35.346 28.654-64 64-64C-28.65 0 .003 28.654.003 64z" fill="#1793D1"/><path d="M128.002 64c0 35.345-28.654 64-64 64C28.653 128 0 99.345 0 64 0 28.655 28.654 0 64 0c35.348 0 64.002 28.654 64.002 64z" fill="#FFF"/><path d="M71 42L56 19l27-8 15 23-27 8zm8 50L64 69l27-8 15 23-27 8z" fill="#F45722"/><path d="M72 45l26-8-9 21-24 7 7-20zm8 50l26-8-9 21-24 7 7-20zM45 46l16 22-8 21-15-23 7-20z" fill="#E22225"/><path d="M54 22l15 22-7 20-15-21 7-21zm8 50l15 22-7 20-15-21 7-21zm-28-7l8-20-24 7-8 21 24-8zM10 77l26-8 14 22-25 8-15-22z" fill="#FD871B"/></g></svg>