<svg width="128" height="128" viewBox="0 0 128 128" xmlns="http://www.w3.org/2000/svg"><title>raspberry-logo</title><g fill="none" fill-rule="evenodd"><path d="M.002 64c0 35.345-28.654 64-64 64C-99.347 128-128 99.345-128 64c0-35.346 28.654-64 64-64C-28.65 0 .003 28.654.003 64z" fill="#3CA8FC"/><path d="M128.002 64c0 35.345-28.654 64-64 64C28.653 128 0 99.345 0 64 0 28.655 28.654 0 64 0c35.348 0 64.002 28.654 64.002 64z" fill="#BC1142"/><path d="M48.852 22.077c-.424.013-.88.17-1.4.578-1.267-.49-2.497-.66-3.598.337-1.698-.22-2.25.234-2.67.765-.37-.007-2.79-.383-3.898 1.27-2.786-.33-3.666 1.64-2.67 3.475-.568.88-1.157 1.75.173 3.43-.47.936-.18 1.95.93 3.178-.293 1.315.282 2.243 1.314 2.966-.193 1.8 1.65 2.845 2.2 3.218.21 1.048.652 2.038 2.757 2.585.348 1.56 1.613 1.83 2.838 2.16-4.05 2.352-7.52 5.45-7.498 13.047l-.593 1.058c-4.643 2.824-8.82 11.9-2.288 19.275.426 2.31 1.14 3.967 1.778 5.803.953 7.396 7.172 10.86 8.813 11.268 2.404 1.832 4.964 3.57 8.43 4.786 3.264 3.37 6.802 4.652 10.36 4.65h.157c3.557.002 7.095-1.28 10.36-4.65 3.465-1.216 6.025-2.954 8.43-4.785 1.64-.408 7.858-3.87 8.81-11.267.638-1.836 1.354-3.494 1.78-5.803 6.532-7.377 2.355-16.452-2.288-19.276l-.595-1.058c.024-7.597-3.448-10.694-7.498-13.048 1.225-.328 2.49-.598 2.838-2.16 2.105-.548 2.545-1.537 2.757-2.585.55-.373 2.393-1.42 2.2-3.218 1.032-.723 1.607-1.65 1.314-2.966 1.11-1.23 1.4-2.243.93-3.18 1.33-1.677.74-2.547.172-3.428.997-1.836.117-3.804-2.67-3.475-1.108-1.653-3.525-1.278-3.9-1.27-.417-.53-.97-.986-2.667-.765-1.1-.996-2.33-.826-3.598-.337-1.507-1.19-2.504-.236-3.643.124-1.825-.597-2.242.22-3.138.552-1.99-.42-2.594.495-3.548 1.46l-1.11-.02c-3 1.767-4.49 5.368-5.018 7.22-.53-1.852-2.016-5.453-5.016-7.22l-1.11.02c-.954-.965-1.56-1.88-3.548-1.46-.896-.332-1.312-1.15-3.137-.553-.748-.237-1.435-.73-2.244-.703h.002z" fill="#FFF"/><path d="M42.878 29.856c7.96 4.104 12.59 7.424 15.124 10.25-1.298 5.205-8.072 5.443-10.548 5.297.507-.236.93-.52 1.08-.953-.622-.442-2.825-.047-4.363-.91.592-.124.868-.243 1.144-.68-1.453-.463-3.02-.862-3.94-1.63.498.006.962.11 1.61-.34-1.3-.7-2.69-1.256-3.77-2.33.673-.015 1.4-.005 1.61-.253-1.192-.738-2.197-1.56-3.03-2.457.943.114 1.34.016 1.568-.148-.9-.923-2.04-1.7-2.584-2.838.7.24 1.34.333 1.8-.02-.305-.692-1.617-1.1-2.37-2.713.735.073 1.516.162 1.672 0-.342-1.39-.928-2.174-1.503-2.985 1.575-.023 3.963.007 3.855-.127l-.975-.995c1.54-.415 3.114.066 4.258.423.513-.405-.01-.917-.636-1.44 1.307.175 2.49.476 3.558.89.57-.516-.37-1.03-.826-1.546 2.02.383 2.877.922 3.727 1.46.617-.59.035-1.094-.382-1.61 1.524.566 2.31 1.294 3.135 2.013.28-.378.712-.655.19-1.567 1.082.624 1.897 1.358 2.5 2.182.67-.426.4-1.01.402-1.546 1.125.914 1.838 1.887 2.712 2.838.176-.128.33-.563.466-1.25 2.682 2.602 6.472 9.157.974 11.755-4.68-3.86-10.267-6.664-16.46-8.768zM85.116 29.856c-7.96 4.104-12.587 7.423-15.122 10.25 1.298 5.205 8.07 5.443 10.548 5.297-.507-.236-.93-.52-1.08-.953.62-.442 2.825-.047 4.363-.91-.59-.124-.867-.243-1.144-.68 1.455-.463 3.02-.862 3.94-1.63-.496.006-.96.11-1.61-.34 1.303-.7 2.692-1.256 3.77-2.33-.672-.015-1.397-.005-1.608-.253 1.19-.738 2.196-1.56 3.03-2.457-.943.114-1.34.016-1.57-.148.902-.923 2.042-1.7 2.585-2.838-.7.24-1.34.333-1.8-.02.306-.692 1.617-1.1 2.372-2.713-.737.073-1.518.162-1.674 0 .342-1.39.93-2.174 1.504-2.985-1.576-.024-3.964.006-3.855-.127l.974-.996c-1.54-.414-3.115.067-4.258.424-.514-.405.01-.917.635-1.44-1.308.174-2.49.475-3.558.89-.572-.516.37-1.032.825-1.547-2.02.382-2.877.92-3.728 1.46-.618-.59-.036-1.094.38-1.61-1.523.565-2.307 1.294-3.134 2.013-.28-.378-.71-.655-.19-1.567-1.082.623-1.897 1.358-2.5 2.18-.67-.425-.4-1.008-.402-1.545-1.124.916-1.837 1.89-2.71 2.84-.176-.13-.33-.563-.466-1.25-2.683 2.602-6.473 9.156-.975 11.755 4.676-3.86 10.264-6.665 16.457-8.77zM73.637 82.846c.018 3.152-1.795 6.072-4.753 7.653-2.957 1.58-6.606 1.58-9.564 0-2.957-1.582-4.77-4.502-4.753-7.654-.018-3.153 1.796-6.073 4.753-7.654 2.958-1.58 6.607-1.58 9.564 0 2.958 1.58 4.77 4.5 4.753 7.654zM59.226 58.685c2.843 1.493 4.288 4.295 3.79 7.35-.5 3.055-2.864 5.9-6.205 7.462-3.34 1.562-7.15 1.604-9.992.11-2.843-1.492-4.287-4.294-3.79-7.35.5-3.054 2.864-5.9 6.205-7.46 3.34-1.563 7.15-1.605 9.993-.112zM68.608 58.216c2.843-1.493 6.652-1.45 9.993.112 3.342 1.562 5.707 4.406 6.205 7.46.498 3.057-.946 5.86-3.79 7.352-2.842 1.493-6.65 1.45-9.992-.112-3.34-1.562-5.706-4.406-6.204-7.46-.5-3.057.945-5.86 3.788-7.352zM38.84 61.96c4.264-1.143 1.44 17.647-2.032 16.106-3.818-3.07-5.047-12.064 2.03-16.106zM88.134 61.726c-4.266-1.143-1.44 17.648 2.03 16.106 3.818-3.07 5.048-12.064-2.03-16.106zM73.64 47.733c7.362-1.243 13.488 3.13 13.24 11.113-.242 3.06-15.95-10.657-13.24-11.113zM53.302 47.5c-7.362-1.244-13.487 3.13-13.24 11.112.242 3.06 15.952-10.658 13.24-11.113zM63.876 45.637c-4.394-.114-8.61 3.26-8.62 5.22-.013 2.377 3.473 4.813 8.65 4.875 5.286.038 8.66-1.95 8.676-4.405.02-2.78-4.807-5.733-8.706-5.69zM64.144 94.416c3.83-.167 8.97 1.234 8.98 3.092.065 1.805-4.66 5.883-9.234 5.804-4.736.204-9.38-3.88-9.32-5.296-.07-2.075 5.768-3.696 9.574-3.6zM49.995 83.4c2.728 3.287 3.97 9.06 1.695 10.76-2.153 1.3-7.382.765-11.1-4.574-2.505-4.48-2.182-9.04-.422-10.38 2.63-1.602 6.698.563 9.828 4.195zM77.747 82.36c-2.95 3.456-4.594 9.76-2.44 11.79 2.057 1.577 7.582 1.357 11.663-4.306 2.964-3.804 1.97-10.156.278-11.842-2.514-1.945-6.124.544-9.5 4.356z" fill="#BC1142"/></g></svg>