<svg width="128" height="128" viewBox="0 0 128 128" xmlns="http://www.w3.org/2000/svg"><title>scaleway-logo</title><g fill="none" fill-rule="evenodd"><path d="M.002 64c0 35.345-28.654 64-64 64C-99.347 128-128 99.345-128 64c0-35.346 28.654-64 64-64C-28.65 0 .003 28.654.003 64z" fill="#206932"/><path d="M128.002 64c0 35.345-28.654 64-64 64C28.653 128 0 99.345 0 64 0 28.655 28.654 0 64 0c35.348 0 64.002 28.654 64.002 64z" fill="#572E6B"/><path d="M33 34c0-10 10-10 10-10h22c30 0 30 30 30 30v40c0 10-10 10-10 10H63c-30 0-30-30-30-30V34z" fill="#FFF"/><path d="M55 42h-2v26h4V46h22v-4H55zm-9-9h-2v26h4V37h22v-4H46zM73 85h2V59h-4v22H49v4h24zm9 9h2V68h-4v22H58v4h24z" fill="#572E6B"/></g></svg>