<svg width="128" height="128" viewBox="0 0 128 128" xmlns="http://www.w3.org/2000/svg"><title>swhosting-logo</title><g fill="none" fill-rule="evenodd"><path d="M.002 64c0 35.345-28.654 64-64 64C-99.347 128-128 99.345-128 64c0-35.346 28.654-64 64-64C-28.65 0 .003 28.654.003 64z" fill="#264670"/><g><path d="M128.002 64c0 35.345-28.654 64-64 64C28.653 128 0 99.345 0 64 0 28.655 28.654 0 64 0c35.348 0 64.002 28.654 64.002 64z" fill="#E85C1F"/><circle fill="#FFF" cx="73" cy="60" r="40"/><path d="M104 62c0-17.12-13.88-31-31-31" stroke="#E85C1F" stroke-width="4" stroke-linecap="round" stroke-linejoin="round"/><circle fill="#E85C1F" cx="31" cy="82" r="19"/><circle fill="#FFF" cx="31" cy="82" r="17"/></g></g></svg>