<svg width="128" height="128" viewBox="0 0 128 128" xmlns="http://www.w3.org/2000/svg"><title>ubuntu-logo</title><path d="M128.002 64c0 35.345-28.654 64-64 64C28.653 128 0 99.345 0 64 0 28.655 28.654 0 64 0c35.348 0 64.002 28.654 64.002 64zM20.588 55.376c-4.72 0-8.546 3.826-8.546 8.547 0 4.72 3.825 8.544 8.546 8.544 4.72 0 8.544-3.825 8.544-8.544 0-4.72-3.825-8.547-8.544-8.547zm61.01 38.836c-4.088 2.362-5.49 7.585-3.128 11.67 2.358 4.087 7.58 5.488 11.668 3.127 4.087-2.358 5.488-7.58 3.127-11.668-2.358-4.086-7.584-5.487-11.668-3.13zm-42.45-30.288c0-8.444 4.195-15.905 10.613-20.422l-6.246-10.463c-7.476 4.997-13.04 12.633-15.35 21.577 2.697 2.2 4.423 5.552 4.423 9.308 0 3.753-1.726 7.104-4.423 9.305 2.308 8.946 7.87 16.583 15.35 21.58L49.76 84.34c-6.417-4.514-10.61-11.974-10.61-20.418zm24.96-24.96c13.038 0 23.735 9.996 24.858 22.746l12.176-.18c-.6-9.412-4.71-17.862-11.03-24.076-3.248 1.228-7 1.04-10.245-.83-3.25-1.875-5.287-5.038-5.843-8.472-3.158-.87-6.482-1.348-9.918-1.348-5.907 0-11.49 1.387-16.45 3.84l5.937 10.64c3.194-1.486 6.758-2.32 10.514-2.32zm0 49.918c-3.757 0-7.32-.836-10.514-2.322l-5.938 10.64c4.96 2.457 10.544 3.845 16.45 3.845 3.437 0 6.76-.478 9.918-1.352.557-3.433 2.595-6.593 5.844-8.472 3.246-1.872 6.996-2.057 10.245-.83 6.318-6.213 10.43-14.663 11.03-24.075l-12.18-.18C87.844 78.886 77.147 88.88 64.108 88.88zm17.486-55.253c4.087 2.36 9.31.962 11.67-3.125 2.36-4.087.96-9.31-3.126-11.67-4.087-2.36-9.31-.958-11.67 3.13-2.36 4.084-.958 9.307 3.126 11.665z" fill="#DD4814" fill-rule="evenodd"/></svg>