<svg width="128" height="128" viewBox="0 0 128 128" xmlns="http://www.w3.org/2000/svg"><title>archlinux-logo</title><g fill="none" fill-rule="evenodd"><path d="M.002 64c0 35.345-28.654 64-64 64C-99.347 128-128 99.345-128 64c0-35.346 28.654-64 64-64C-28.65 0 .003 28.654.003 64z" fill="#E85C1F"/><path d="M128.002 64c0 35.345-28.654 64-64 64C28.653 128 0 99.345 0 64 0 28.655 28.654 0 64 0c35.348 0 64.002 28.654 64.002 64z" fill="#1793D1"/><path d="M63.992 17c-3.74 9.166-5.995 15.162-10.158 24.056 2.552 2.706 5.686 5.856 10.774 9.414-5.47-2.25-9.202-4.51-11.99-6.855C47.287 54.732 38.94 70.565 22 101c13.315-7.686 23.636-12.424 33.256-14.232-.413-1.776-.648-3.697-.632-5.702l.015-.426c.21-8.53 4.648-15.088 9.905-14.643 5.257.446 9.343 7.725 9.132 16.254-.04 1.606-.22 3.15-.538 4.582C82.653 88.692 92.864 93.418 106 101c-2.59-4.767-4.902-9.065-7.11-13.158-3.477-2.694-7.104-6.2-14.502-9.998 5.085 1.32 8.726 2.845 11.564 4.55C73.507 40.61 71.69 35.058 63.992 17z" fill="#FFF"/></g></svg>