<svg width="128" height="128" viewBox="0 0 128 128" xmlns="http://www.w3.org/2000/svg"><title>cozy-logo</title><g fill="none" fill-rule="evenodd"><path d="M.002 64c0 35.345-28.654 64-64 64C-99.347 128-128 99.345-128 64c0-35.346 28.654-64 64-64C-28.65 0 .003 28.654.003 64z" fill="#E84425"/><path d="M128.002 64c0 35.345-28.654 64-64 64C28.653 128 0 99.345 0 64 0 28.655 28.654 0 64 0c35.348 0 64.002 28.654 64.002 64z" fill="#3CA8FC"/><path d="M86.58 94.6H41.42C27.4 94.6 16 83.11 16 68.988c0-6.735 2.573-13.096 7.25-17.91 4.096-4.213 9.403-6.836 15.143-7.518.678-5.784 3.278-11.13 7.463-15.257C50.634 23.59 56.946 21 63.632 21c6.684 0 12.998 2.59 17.776 7.3 4.168 4.11 6.76 9.428 7.456 15.18C101.814 44.65 112 55.645 112 68.99c0 14.12-11.408 25.61-25.422 25.61h.002zm.087-4.802h.194c11.217 0 20.34-9.243 20.34-20.606 0-11.36-9.123-20.604-20.34-20.604h-.203c-1.464 0-2.664-1.18-2.697-2.668-.252-11.097-9.372-20.12-20.33-20.12-10.96 0-20.082 9.027-20.333 20.124-.033 1.46-1.194 2.636-2.637 2.67-10.95.256-19.86 9.495-19.86 20.6 0 11.363 9.123 20.606 20.34 20.606h.164l.064-.004c.058 0 .117 0 .175.004H86.66l.007-.002zM76.67 67.454c-1.605-1.053-1.684-2.988-1.688-3.073-.01-.524-.437-.938-.96-.93-.522.01-.937.444-.927.966.003.07.03.978.46 2.048-5.707 5.442-14.676 5.45-20.395.033.44-1.086.47-2.01.47-2.08.01-.52-.403-.952-.922-.965-.512-.016-.948.405-.966.927 0 .077-.076 2.02-1.684 3.072-.438.29-.56.88-.274 1.318.18.278.48.43.79.43.177 0 .356-.05.515-.154.412-.27.758-.58 1.048-.908 3.177 2.88 7.19 4.32 11.204 4.32 4.024 0 8.047-1.446 11.23-4.34.29.333.64.65 1.065.928.158.105.338.155.515.155.307 0 .61-.154.79-.432.285-.44.163-1.032-.273-1.318v.004z" fill="#FFF"/></g></svg>