<svg width="128" height="128" viewBox="0 0 128 128" xmlns="http://www.w3.org/2000/svg"><title>debian-logo</title><path d="M0 64C0 28.654 28.646 0 64 0c35.346 0 64 28.646 64 64 0 35.346-28.646 64-64 64-35.346 0-64-28.646-64-64zm89.698-5.707c.083 2.25-.658 3.343-1.326 5.276l-1.203.6c-.986 1.912.094 1.214-.61 2.734-1.538 1.367-4.665 4.276-5.665 4.54-.73-.015.495-.86.655-1.192-2.057 1.413-1.65 2.12-4.797 2.98l-.092-.206c-7.76 3.65-18.537-3.584-18.396-13.455-.082.628-.235.472-.407.725-.4-5.08 2.345-10.18 6.976-12.263 4.53-2.242 9.84-1.322 13.085 1.702-1.782-2.335-5.33-4.81-9.534-4.578-4.118.065-7.97 2.682-9.257 5.524-2.11 1.328-2.354 5.12-3.274 5.814-1.237 9.09 2.327 13.02 8.355 17.64.95.64.268.736.396 1.223-2.003-.938-3.837-2.354-5.345-4.087.8 1.17 1.663 2.31 2.78 3.204-1.89-.64-4.412-4.576-5.15-4.736 3.257 5.828 13.21 10.22 18.42 8.042-2.41.09-5.474.05-8.184-.952-1.138-.586-2.685-1.8-2.41-2.026 7.113 2.657 14.46 2.013 20.614-2.92 1.565-1.22 3.275-3.294 3.77-3.323-.745 1.12.127.538-.445 1.526 1.56-2.516-.678-1.024 1.613-4.344l.845 1.165c-.314-2.09 2.594-4.625 2.3-7.927.665-1.01.743 1.086.035 3.41.982-2.578.26-2.992.51-5.12.274.716.632 1.476.815 2.23-.64-2.49.657-4.195.978-5.642-.315-.14-.987 1.1-1.14-1.842.022-1.278.355-.67.484-.984-.25-.144-.91-1.124-1.31-3.003.29-.442.776 1.144 1.17 1.21-.253-1.495-.69-2.635-.708-3.78-1.154-2.413-.408.32-1.345-1.037-1.227-3.83 1.02-.89 1.172-2.63 1.862 2.698 2.924 6.88 3.41 8.61-.37-2.11-.97-4.156-1.705-6.135.565.238-.91-4.345.735-1.31-1.758-6.47-7.525-12.514-12.83-15.35.65.594 1.47 1.34 1.175 1.457-2.64-1.57-2.175-1.693-2.553-2.357-2.15-.875-2.29.07-3.714 0-4.05-2.147-4.83-1.92-8.56-3.265l.17.792c-2.683-.893-3.126.34-6.027.003-.177-.137.93-.498 1.84-.63-2.595.342-2.474-.512-5.013.094.626-.44 1.288-.73 1.955-1.103-2.116.127-5.05 1.23-4.145.227-3.452 1.54-9.582 3.702-13.02 6.927l-.11-.723c-1.576 1.894-6.873 5.653-7.295 8.103l-.422.1c-.82 1.387-1.35 2.96-2 4.39-1.074 1.828-1.573.704-1.42.99-2.11 4.278-3.16 7.873-4.064 10.82.644.965.014 5.806.258 9.68-1.06 19.135 13.43 37.714 29.267 42.003 2.32.83 5.773.8 8.71.884-3.465-.99-3.912-.525-7.287-1.702-2.435-1.146-2.968-2.455-4.693-3.95l.683 1.204c-3.382-1.196-1.967-1.48-4.718-2.352l.73-.952c-1.097-.083-2.904-1.847-3.398-2.824l-1.2.047c-1.44-1.776-2.208-3.057-2.152-4.05l-.387.69c-.44-.753-5.3-6.666-2.778-5.29-.47-.428-1.092-.697-1.767-1.924l.513-.587c-1.212-1.562-2.232-3.564-2.155-4.23.647.874 1.097 1.037 1.54 1.187-3.064-7.605-3.236-.42-5.557-7.74l.49-.04c-.375-.568-.604-1.183-.907-1.788l.215-2.13c-2.207-2.552-.617-10.85-.3-15.4.222-1.85 1.843-3.82 3.076-6.91l-.75-.128c1.436-2.505 8.2-10.06 11.332-9.67 1.517-1.907-.302-.008-.598-.488 3.333-3.45 4.38-2.437 6.63-3.057 2.426-1.44-2.082.56-.932-.55 4.194-1.07 2.972-2.435 8.443-2.98.577.33-1.34.51-1.82.935 3.494-1.71 11.056-1.32 15.97.95 5.7 2.662 12.103 10.536 12.355 17.945l.288.078c-.146 2.944.45 6.35-.583 9.48l.703-1.482zM70.33 66.38c-1.392.02.263.717 2.08.997.502-.392.958-.79 1.363-1.175-1.13.278-2.283.284-3.443.178zm7.47-1.862c.83-1.144 1.433-2.397 1.646-3.692-.186.924-.687 1.72-1.158 2.562-2.602 1.638-.245-.973-.002-1.965-2.798 3.52-.384 2.11-.486 3.095zm2.758-7.176c.168-2.506-.494-1.714-.716-.757.26.135.465 1.767.716.757zM65.052 23.084c.743.133 1.605.235 1.484.412.812-.178.997-.342-1.484-.412zm1.484.412l-.525.11.49-.044.036-.066zM55.138 68.29l-.196.977c.915 1.242 1.64 2.588 2.81 3.56-.84-1.64-1.466-2.32-2.614-4.536zm2.162-.085c-.484-.535-.77-1.18-1.09-1.82.306 1.127.934 2.097 1.518 3.083l-.428-1.263zm38.266-8.317l-.204.513c-.375 2.664-1.184 5.3-2.425 7.742 1.37-2.578 2.258-5.397 2.63-8.254zm-30.24-37.472c.942-.345 2.314-.19 3.313-.416-1.302.11-2.597.174-3.876.34l.563.076zM32.29 39.984c.217 2.008-1.51 2.787.383 1.464 1.015-2.286-.396-.632-.382-1.464zm-2.224 9.292c.436-1.338.515-2.142.68-2.917-1.204 1.54-.553 1.868-.68 2.916z" fill="#A80030" fill-rule="evenodd"/></svg>