<svg width="128" height="128" viewBox="0 0 128 128" xmlns="http://www.w3.org/2000/svg"><title>docker-logo</title><g fill="none" fill-rule="evenodd"><path d="M.002 64c0 35.345-28.654 64-64 64C-99.347 128-128 99.345-128 64c0-35.346 28.654-64 64-64C-28.65 0 .003 28.654.003 64zm-99.555 12.826l-3.4-38.845c-.096-1.102.636-2.354 1.658-2.804l35.136-15.488c1.013-.446 2.656-.448 3.667-.006l34.88 15.245c1.01.442 1.754 1.698 1.658 2.797l-3.4 39.102-13.02 10.21c1.533 4.085-1.275 22.464-21.952 21.954-20.676-.51-23.23-17.614-21.442-21.443l-13.783-10.72zm2.042-32.42l28.078 17.87-.255 29.355-26.293-18.888-1.53-28.335zm38.29 18.125l-.256 29.1 26.547-19.144 1.533-27.058L-59.22 62.53zm-33.696-26.547l28.59-13.018 28.59 13.018-28.335 16.848-28.846-16.847zm6.234.418l22.355-10.18L-41.97 36.4l-22.157 13.174L-86.682 36.4zm3.264.22l11.906-5.422 2.846 1.467-7.148 7.402 12.51-5.105-4.086 5.105 7.914-3.063-3.83 5.106 4.26 2.72-5.11 3.04-19.262-11.25zm20.878 0l3.83-4.72-11.488 4.338 3.574-3.83-3.1-2.025 5.397-2.457 19.09 8.693-11.934 7.096-3.838-2.117 5.87-7.914-7.402 2.933z" fill="#678EBE"/><path d="M128.002 64c0 35.345-28.654 64-64 64C28.653 128 0 99.345 0 64 0 28.655 28.654 0 64 0c35.348 0 64.002 28.654 64.002 64z" fill="#37B0D9"/><path d="M24.5 69.885c.436 2.583 1.24 5.012 2.374 7.246l.72 1.315c.454.774.952 1.52 1.49 2.236 2.598.168 4.993.225 7.184.178 4.308-.096 7.823-.603 10.487-1.528.397-.138.828.074.966.47.138.395-.072.828-.467.965-.307.107-.627.206-.955.303 1.767 3.834 5.413 7.982 10.67 10.695 17.232-.64 32.162-7.528 41.21-21.878H24.5zm-.175-1.22c-.242-1.993-.27-4.07-.07-6.217h63.2c5.193 0 10.262-1.938 12.668-4.075-4.31-3.507-3.884-11.835-1.135-15.012 2.386 1.917 6.232 5.953 5.57 11.094 3-1.51 8.214-2.255 12.267.083-2.545 4.968-8.14 6.45-13.96 5.854-1.073 2.842-2.32 5.476-3.73 7.91-2.05-.407-3.75-1.112-4.613-1.922-2.942 4.27-20.078 2.647-21.273-.68-3.69 4.33-15.124 4.33-18.815 0-1.195 3.327-18.328 4.95-21.272.68-1.416 1.327-5.076 2.373-8.838 2.288zm76.553-.102c1.135-2.02 2.163-4.165 3.076-6.44 5.707.3 11.542-1.39 14.334-6.836l.712-1.392-1.353-.78c-3.302-1.906-7.698-2.166-11.443-1.065-.46-3.98-3.076-7.47-6.187-9.97l-1.235-.993-1.037 1.2c-2.083 2.407-2.702 6.412-2.42 9.49.21 2.26.92 4.556 2.314 6.374-1.06.637-2.26 1.142-3.332 1.505-2.182.74-4.55 1.15-6.852 1.15h-4.988V50.723h-9.86V31H60.773v9.863H41.05v9.86h-9.86v10.082h-8.434l-.138 1.49c-.196 2.095-.187 4.192.04 6.256-2.695-.315-5.28-1.282-6.953-3.22.85 3.13-4.316 3.948-6.705 4.555h13.838c.376 2.375 1.052 4.698 2.056 6.918l.885 1.802.1.17c6.082 10.33 16.765 14.683 28.41 14.683 19.595 0 36.204-7.61 45.818-23.573h18.578c-2.39-.607-7.558-1.424-6.704-4.554-2.537 2.936-7.166 3.645-11.104 3.233zm-50.172 6.21c1.303 0 2.358 1.054 2.358 2.355 0 1.304-1.055 2.358-2.358 2.358-1.303 0-2.357-1.054-2.357-2.358 0-1.3 1.053-2.356 2.356-2.356zm0 .666c.216 0 .42.04.61.114-.205.12-.343.342-.343.597 0 .382.308.69.688.69.262 0 .49-.144.606-.36.083.2.128.42.128.648 0 .933-.756 1.69-1.688 1.69-.933 0-1.69-.757-1.69-1.69 0-.93.757-1.69 1.69-1.69zM32.833 52.366h8.546v8.547h-8.547v-8.547zm9.86-9.862h8.547v8.548h-8.547v-8.548zm0 9.862h8.547v8.547h-8.547v-8.547zm9.863 0h8.547v8.547h-8.547v-8.547zm0-9.862h8.547v8.548h-8.547v-8.548zm9.862 9.862h8.546v8.547h-8.546v-8.547zm0-9.862h8.546v8.548h-8.546v-8.548zm0-9.862h8.546v8.547h-8.546v-8.547zm9.86 19.724h8.547v8.547H72.28v-8.547z" fill="#FFF"/></g></svg>