<svg width="128" height="128" viewBox="0 0 128 128" xmlns="http://www.w3.org/2000/svg"><title>virtualbox-logo</title><g fill="none" fill-rule="evenodd"><path d="M.002 64c0 35.345-28.654 64-64 64C-99.347 128-128 99.345-128 64c0-35.346 28.654-64 64-64C-28.65 0 .003 28.654.003 64zm-107.414-8.625c-4.72 0-8.546 3.826-8.546 8.547 0 4.72 3.825 8.544 8.546 8.544 4.72 0 8.544-3.825 8.544-8.544 0-4.72-3.825-8.547-8.544-8.547zm61.01 38.836c-4.088 2.362-5.49 7.585-3.128 11.67 2.358 4.087 7.58 5.488 11.668 3.127 4.087-2.358 5.488-7.58 3.127-11.668-2.358-4.086-7.584-5.487-11.668-3.13zm-42.45-30.288c0-8.444 4.195-15.905 10.613-20.422l-6.246-10.463c-7.476 4.997-13.04 12.633-15.35 21.577 2.697 2.2 4.423 5.552 4.423 9.308 0 3.753-1.726 7.104-4.423 9.305 2.308 8.946 7.87 16.583 15.35 21.58l6.247-10.466c-6.417-4.514-10.61-11.974-10.61-20.418zm24.96-24.96c13.038 0 23.735 9.996 24.858 22.746l12.176-.18c-.6-9.412-4.71-17.862-11.03-24.076-3.248 1.228-7 1.04-10.245-.83-3.25-1.875-5.287-5.038-5.843-8.472-3.158-.87-6.482-1.348-9.918-1.348-5.907 0-11.49 1.387-16.45 3.84l5.937 10.64c3.194-1.486 6.758-2.32 10.514-2.32zm0 49.918c-3.757 0-7.32-.836-10.514-2.322l-5.938 10.64c4.96 2.457 10.544 3.845 16.45 3.845 3.437 0 6.76-.478 9.918-1.352.557-3.433 2.595-6.593 5.844-8.472 3.246-1.872 6.996-2.057 10.245-.83 6.318-6.213 10.43-14.663 11.03-24.075l-12.18-.18c-1.12 12.753-11.817 22.747-24.856 22.747zm17.486-55.253c4.087 2.36 9.31.962 11.67-3.125 2.36-4.087.96-9.31-3.126-11.67-4.087-2.36-9.31-.958-11.67 3.13-2.36 4.084-.958 9.307 3.126 11.665z" fill="#DD4814"/><path d="M128.002 64c0 35.345-28.654 64-64 64C28.653 128 0 99.345 0 64 0 28.655 28.654 0 64 0c35.348 0 64.002 28.654 64.002 64zM28.447 76.827l-3.4-38.845c-.096-1.102.636-2.354 1.658-2.804L61.84 19.688c1.013-.446 2.656-.448 3.667-.006l34.88 15.245c1.01.442 1.754 1.698 1.658 2.797l-3.4 39.102-13.02 10.21c1.533 4.085-1.275 22.464-21.952 21.954-20.676-.51-23.23-17.614-21.442-21.443l-13.783-10.72zm2.042-32.42l28.078 17.87-.255 29.355L32.02 72.743l-1.53-28.335zm38.29 18.125l-.256 29.1L95.07 72.487l1.533-27.058L68.78 62.53zM35.083 35.984l28.59-13.018 28.59 13.018L63.928 52.83 35.083 35.984zm6.234.418l22.355-10.18L86.03 36.4 63.872 49.575 41.318 36.4zm3.264.22l11.906-5.422 2.846 1.467-7.148 7.402 12.51-5.105-4.086 5.105 7.914-3.063-3.83 5.106 4.26 2.72-5.11 3.04-19.262-11.25zm20.878 0l3.83-4.72L57.8 36.237l3.574-3.83-3.1-2.025 5.397-2.457 19.09 8.693-11.934 7.096L66.99 41.6l5.87-7.914-7.402 2.933z" fill="#678EBE"/></g></svg>